<?xml version="1.0" encoding="UTF-8"?>
<!DOCTYPE score-partwise PUBLIC "-//Recordare//DTD MusicXML 2.0 Partwise//EN"
  "http://www.musicxml.org/dtds/partwise.dtd">
<score-partwise version="2.0"><work><work-title>Elegy I</work-title></work><identification><creator type="composer"/><creator type="lyricist"/><rights/><encoding><software>Noteflight version 0.4</software><encoding-date>2022-04-13</encoding-date><supports attribute="new-system" element="print" type="no" value="no"/><supports attribute="new-page" element="print" type="no" value="no"/></encoding></identification><defaults><scaling><millimeters>2.1166666679999997</millimeters><tenths>10</tenths></scaling><page-layout><page-height>1320</page-height><page-width>1020</page-width><page-margins type="both"><left-margin>59.583333333333336</left-margin><right-margin>56.66666666666667</right-margin><top-margin>96.66666666666667</top-margin><bottom-margin>80</bottom-margin></page-margins></page-layout><system-layout><system-margins><left-margin>59.583333333333336</left-margin><right-margin>26.666666666666668</right-margin></system-margins><system-distance>92.5</system-distance><top-system-distance>145.83333333333334</top-system-distance></system-layout><staff-layout><staff-distance>55</staff-distance></staff-layout></defaults><credit page="1"><credit-type>title</credit-type><credit-words font-size="24" default-x="510" default-y="1210" justify="right" valign="top">Elegy I</credit-words></credit><part-list><score-part id="P1"><part-name>Violoncello I</part-name><part-abbreviation>Vc.1</part-abbreviation><score-instrument id="P1I1"><instrument-name>Violoncello I</instrument-name><instrument-sound>strings.cello</instrument-sound></score-instrument><midi-instrument id="P1I1"><midi-channel>1</midi-channel><midi-program>43</midi-program></midi-instrument></score-part></part-list><part id="P1"><measure number="1"><attributes><divisions>384</divisions><key><fifths>-3</fifths><mode>minor</mode></key><time print-object="yes"><beats>4</beats><beat-type>4</beat-type></time><clef number="1"><sign>G</sign><line>2</line></clef><transpose><diatonic>-3</diatonic><chromatic>-5</chromatic></transpose></attributes><direction placement="above"><direction-type><metronome><beat-unit>quarter</beat-unit><per-minute>89</per-minute></metronome></direction-type><sound tempo="89"/></direction><direction placement="above"><direction-type><metronome><beat-unit>quarter</beat-unit><per-minute>89</per-minute></metronome></direction-type><sound tempo="89"/></direction><note><rest/><duration>768</duration><voice>1</voice><type>half</type></note><note><rest/><duration>192</duration><voice>1</voice><type>eighth</type></note><note><pitch><step>G</step><octave>4</octave></pitch><duration>192</duration><voice>1</voice><type>eighth</type><beam number="1">begin</beam></note><note><pitch><step>F</step><octave>5</octave></pitch><duration>192</duration><voice>1</voice><type>eighth</type><beam number="1">continue</beam></note><note><pitch><step>E</step><alter>-1</alter><octave>5</octave></pitch><duration>192</duration><voice>1</voice><type>eighth</type><beam number="1">end</beam></note></measure><measure number="2"><attributes/><note><pitch><step>D</step><octave>5</octave></pitch><duration>192</duration><voice>1</voice><type>eighth</type><beam number="1">begin</beam></note><note><pitch><step>E</step><alter>-1</alter><octave>5</octave></pitch><duration>192</duration><voice>1</voice><type>eighth</type><beam number="1">end</beam></note><note><pitch><step>G</step><octave>4</octave></pitch><duration>576</duration><voice>1</voice><type>quarter</type><dot/></note><note><pitch><step>G</step><octave>4</octave></pitch><duration>192</duration><voice>1</voice><type>eighth</type><beam number="1">begin</beam></note><note><pitch><step>F</step><octave>5</octave></pitch><duration>192</duration><voice>1</voice><type>eighth</type><beam number="1">continue</beam></note><note><pitch><step>E</step><alter>-1</alter><octave>5</octave></pitch><duration>192</duration><voice>1</voice><type>eighth</type><beam number="1">end</beam></note></measure><measure number="3"><attributes/><note><pitch><step>D</step><octave>5</octave></pitch><duration>192</duration><voice>1</voice><type>eighth</type><beam number="1">begin</beam></note><note><pitch><step>E</step><alter>-1</alter><octave>5</octave></pitch><duration>192</duration><voice>1</voice><type>eighth</type><beam number="1">end</beam></note><note><pitch><step>G</step><octave>4</octave></pitch><duration>576</duration><voice>1</voice><type>quarter</type><dot/></note><note><pitch><step>G</step><octave>4</octave></pitch><duration>192</duration><voice>1</voice><type>eighth</type></note><note><pitch><step>B</step><alter>-1</alter><octave>4</octave></pitch><duration>192</duration><voice>1</voice><type>eighth</type><beam number="1">begin</beam></note><note><pitch><step>A</step><alter>-1</alter><octave>4</octave></pitch><duration>192</duration><voice>1</voice><type>eighth</type><beam number="1">end</beam></note></measure><measure number="4"><attributes/><note><pitch><step>G</step><octave>4</octave></pitch><duration>192</duration><voice>1</voice><type>eighth</type><beam number="1">begin</beam></note><note><pitch><step>E</step><alter>-1</alter><octave>4</octave></pitch><duration>192</duration><voice>1</voice><type>eighth</type><beam number="1">end</beam></note><note><pitch><step>E</step><alter>-1</alter><octave>4</octave></pitch><duration>192</duration><voice>1</voice><type>eighth</type><beam number="1">begin</beam></note><note><pitch><step>C</step><octave>4</octave></pitch><duration>96</duration><voice>1</voice><type>16th</type><beam number="1">continue</beam></note><note><pitch><step>D</step><octave>4</octave></pitch><duration>96</duration><voice>1</voice><type>16th</type><beam number="1">end</beam></note><note><pitch><step>E</step><alter>-1</alter><octave>4</octave></pitch><duration>576</duration><voice>1</voice><type>quarter</type><dot/></note><note><pitch><step>G</step><octave>3</octave></pitch><duration>192</duration><voice>1</voice><type>eighth</type></note></measure><measure number="5"><attributes><clef number="1"><sign>F</sign><line>4</line></clef></attributes><note><pitch><step>A</step><alter>-1</alter><octave>3</octave></pitch><duration>192</duration><voice>1</voice><type>eighth</type><beam number="1">begin</beam></note><note><pitch><step>E</step><alter>-1</alter><octave>4</octave></pitch><duration>192</duration><voice>1</voice><type>eighth</type><beam number="1">continue</beam></note><note><pitch><step>D</step><octave>4</octave></pitch><duration>192</duration><voice>1</voice><type>eighth</type><beam number="1">continue</beam></note><note><pitch><step>C</step><octave>4</octave></pitch><duration>192</duration><voice>1</voice><type>eighth</type><beam number="1">end</beam></note><note><pitch><step>G</step><octave>3</octave></pitch><duration>192</duration><voice>1</voice><type>eighth</type><beam number="1">begin</beam></note><note><pitch><step>G</step><octave>4</octave></pitch><duration>192</duration><voice>1</voice><type>eighth</type><beam number="1">continue</beam></note><note><pitch><step>F</step><octave>5</octave></pitch><duration>192</duration><voice>1</voice><type>eighth</type><beam number="1">continue</beam></note><note><pitch><step>E</step><alter>-1</alter><octave>5</octave></pitch><duration>192</duration><voice>1</voice><type>eighth</type><beam number="1">continue</beam></note></measure><measure number="6"><attributes><clef number="1"><sign>G</sign><line>2</line></clef></attributes><note><pitch><step>D</step><octave>5</octave></pitch><duration>192</duration><voice>1</voice><type>eighth</type><beam number="1">begin</beam></note><note><pitch><step>E</step><alter>-1</alter><octave>5</octave></pitch><duration>192</duration><voice>1</voice><type>eighth</type><beam number="1">end</beam></note><note><pitch><step>G</step><octave>4</octave></pitch><duration>576</duration><voice>1</voice><type>quarter</type><dot/></note><note><pitch><step>G</step><octave>4</octave></pitch><duration>192</duration><voice>1</voice><type>eighth</type><beam number="1">begin</beam></note><note><pitch><step>F</step><octave>5</octave></pitch><duration>192</duration><voice>1</voice><type>eighth</type><beam number="1">continue</beam></note><note><pitch><step>E</step><alter>-1</alter><octave>5</octave></pitch><duration>192</duration><voice>1</voice><type>eighth</type><beam number="1">end</beam></note></measure><measure number="7"><attributes/><note><pitch><step>D</step><octave>5</octave></pitch><duration>192</duration><voice>1</voice><type>eighth</type><beam number="1">begin</beam></note><note><pitch><step>E</step><alter>-1</alter><octave>5</octave></pitch><duration>192</duration><voice>1</voice><type>eighth</type><beam number="1">end</beam></note><note><pitch><step>B</step><alter>-1</alter><octave>5</octave></pitch><duration>768</duration><voice>1</voice><type>half</type></note><note><pitch><step>A</step><alter>-1</alter><octave>5</octave></pitch><duration>192</duration><voice>1</voice><type>eighth</type><beam number="1">begin</beam></note><note><pitch><step>G</step><octave>5</octave></pitch><duration>192</duration><voice>1</voice><type>eighth</type><beam number="1">end</beam></note></measure><measure number="8"><attributes/><note><pitch><step>G</step><octave>5</octave></pitch><duration>192</duration><voice>1</voice><type>eighth</type><beam number="1">begin</beam></note><note><pitch><step>A</step><alter>-1</alter><octave>5</octave></pitch><duration>192</duration><voice>1</voice><type>eighth</type><beam number="1">continue</beam></note><note><pitch><step>C</step><octave>5</octave></pitch><duration>192</duration><voice>1</voice><type>eighth</type><beam number="1">continue</beam></note><note><pitch><step>D</step><octave>5</octave></pitch><duration>192</duration><voice>1</voice><type>eighth</type><beam number="1">end</beam></note><note><pitch><step>E</step><alter>-1</alter><octave>5</octave></pitch><duration>192</duration><voice>1</voice><type>eighth</type><beam number="1">begin</beam></note><note><pitch><step>G</step><octave>4</octave></pitch><duration>192</duration><voice>1</voice><type>eighth</type><beam number="1">continue</beam></note><note><pitch><step>A</step><alter>-1</alter><octave>4</octave></pitch><duration>192</duration><voice>1</voice><type>eighth</type><beam number="1">continue</beam></note><note><pitch><step>E</step><alter>-1</alter><octave>5</octave></pitch><duration>192</duration><voice>1</voice><type>eighth</type><beam number="1">end</beam></note></measure><measure number="9"><attributes/><note><rest/><duration>1536</duration><voice>1</voice><type>whole</type></note></measure><measure number="10"><attributes/><note><pitch><step>C</step><octave>5</octave></pitch><duration>192</duration><voice>1</voice><type>eighth</type></note><note><chord/><pitch><step>E</step><alter>-1</alter><octave>5</octave></pitch><duration>192</duration><voice>1</voice><type>eighth</type></note><note><pitch><step>B</step><octave>4</octave></pitch><duration>384</duration><voice>1</voice><type>quarter</type><accidental>sharp</accidental></note><note><chord/><pitch><step>D</step><octave>5</octave></pitch><duration>384</duration><voice>1</voice><type>quarter</type></note><note><pitch><step>G</step><octave>5</octave></pitch><duration>96</duration><voice>1</voice><type>16th</type><beam number="1">begin</beam></note><note><pitch><step>B</step><octave>5</octave></pitch><duration>96</duration><voice>1</voice><type>16th</type><accidental>sharp</accidental><beam number="1">end</beam></note><note><pitch><step>D</step><octave>6</octave></pitch><duration>192</duration><voice>1</voice><type>eighth</type><beam number="1">begin</beam></note><note><pitch><step>B</step><octave>5</octave></pitch><duration>192</duration><voice>1</voice><type>eighth</type><beam number="1">continue</beam></note><note><pitch><step>F</step><octave>6</octave></pitch><duration>192</duration><voice>1</voice><type>eighth</type><beam number="1">continue</beam></note><note><pitch><step>E</step><alter>-1</alter><octave>6</octave></pitch><duration>192</duration><voice>1</voice><type>eighth</type><beam number="1">continue</beam></note></measure><measure number="11"><attributes/><note><pitch><step>D</step><octave>6</octave></pitch><duration>192</duration><voice>1</voice><type>eighth</type><beam number="1">begin</beam></note><note><pitch><step>E</step><alter>-1</alter><octave>6</octave></pitch><duration>192</duration><voice>1</voice><type>eighth</type><beam number="1">end</beam></note><note><pitch><step>G</step><octave>5</octave></pitch><duration>576</duration><voice>1</voice><type>quarter</type><dot/></note><note><pitch><step>G</step><octave>5</octave></pitch><duration>192</duration><voice>1</voice><type>eighth</type><beam number="1">begin</beam></note><note><pitch><step>B</step><alter>-1</alter><octave>5</octave></pitch><duration>192</duration><voice>1</voice><type>eighth</type><beam number="1">continue</beam></note><note><pitch><step>A</step><alter>-1</alter><octave>5</octave></pitch><duration>192</duration><voice>1</voice><type>eighth</type><beam number="1">end</beam></note></measure><measure number="12"><attributes/><note><pitch><step>G</step><octave>5</octave></pitch><duration>192</duration><voice>1</voice><type>eighth</type><beam number="1">begin</beam></note><note><pitch><step>E</step><alter>-1</alter><octave>5</octave></pitch><duration>192</duration><voice>1</voice><type>eighth</type><beam number="1">end</beam></note><note><pitch><step>E</step><alter>-1</alter><octave>5</octave></pitch><duration>192</duration><voice>1</voice><type>eighth</type><beam number="1">begin</beam></note><note><pitch><step>C</step><octave>5</octave></pitch><duration>96</duration><voice>1</voice><type>16th</type><beam number="1">continue</beam></note><note><pitch><step>D</step><octave>5</octave></pitch><duration>96</duration><voice>1</voice><type>16th</type><beam number="1">end</beam></note><note><pitch><step>E</step><alter>-1</alter><octave>5</octave></pitch><duration>576</duration><voice>1</voice><type>quarter</type><dot/></note><note><pitch><step>G</step><octave>4</octave></pitch><duration>192</duration><voice>1</voice><type>eighth</type></note></measure><measure number="13"><attributes/><note><pitch><step>A</step><alter>-1</alter><octave>4</octave></pitch><duration>192</duration><voice>1</voice><type>eighth</type><beam number="1">begin</beam></note><note><pitch><step>E</step><alter>-1</alter><octave>5</octave></pitch><duration>192</duration><voice>1</voice><type>eighth</type><beam number="1">continue</beam></note><note><pitch><step>D</step><octave>5</octave></pitch><duration>192</duration><voice>1</voice><type>eighth</type><beam number="1">continue</beam></note><note><pitch><step>C</step><octave>5</octave></pitch><duration>192</duration><voice>1</voice><type>eighth</type><beam number="1">end</beam></note><note><pitch><step>G</step><octave>5</octave></pitch><duration>192</duration><voice>1</voice><type>eighth</type><beam number="1">begin</beam></note><note><pitch><step>G</step><octave>5</octave></pitch><duration>192</duration><voice>1</voice><type>eighth</type><beam number="1">continue</beam></note><note><pitch><step>F</step><octave>6</octave></pitch><duration>192</duration><voice>1</voice><type>eighth</type><beam number="1">continue</beam></note><note><pitch><step>E</step><alter>-1</alter><octave>6</octave></pitch><duration>192</duration><voice>1</voice><type>eighth</type><beam number="1">end</beam></note></measure><measure number="14"><attributes/><note><pitch><step>D</step><octave>6</octave></pitch><duration>192</duration><voice>1</voice><type>eighth</type><beam number="1">begin</beam></note><note><pitch><step>E</step><alter>-1</alter><octave>6</octave></pitch><duration>192</duration><voice>1</voice><type>eighth</type><beam number="1">end</beam></note><note><pitch><step>G</step><octave>5</octave></pitch><duration>576</duration><voice>1</voice><type>quarter</type><dot/></note><note><pitch><step>G</step><octave>5</octave></pitch><duration>192</duration><voice>1</voice><type>eighth</type><beam number="1">begin</beam></note><note><pitch><step>F</step><octave>6</octave></pitch><duration>192</duration><voice>1</voice><type>eighth</type><beam number="1">continue</beam></note><note><pitch><step>E</step><alter>-1</alter><octave>6</octave></pitch><duration>192</duration><voice>1</voice><type>eighth</type><beam number="1">end</beam></note></measure><measure number="15"><attributes/><note><pitch><step>D</step><octave>6</octave></pitch><duration>192</duration><voice>1</voice><type>eighth</type><beam number="1">begin</beam></note><note><pitch><step>E</step><alter>-1</alter><octave>6</octave></pitch><duration>192</duration><voice>1</voice><type>eighth</type><beam number="1">end</beam></note><note><pitch><step>B</step><alter>-1</alter><octave>6</octave></pitch><duration>768</duration><voice>1</voice><type>half</type></note><note><pitch><step>A</step><alter>-1</alter><octave>6</octave></pitch><duration>192</duration><voice>1</voice><type>eighth</type><beam number="1">begin</beam></note><note><pitch><step>F</step><alter>1</alter><octave>6</octave></pitch><duration>192</duration><voice>1</voice><type>eighth</type><accidental>sharp</accidental><beam number="1">end</beam></note></measure><measure number="16"><attributes/><note><pitch><step>F</step><alter>1</alter><octave>6</octave></pitch><duration>192</duration><voice>1</voice><type>eighth</type><accidental>sharp</accidental><beam number="1">begin</beam></note><note><pitch><step>G</step><octave>6</octave></pitch><duration>192</duration><voice>1</voice><type>eighth</type><beam number="1">continue</beam></note><note><pitch><step>D</step><octave>6</octave></pitch><duration>192</duration><voice>1</voice><type>eighth</type><beam number="1">continue</beam></note><note><pitch><step>E</step><alter>-1</alter><octave>6</octave></pitch><duration>192</duration><voice>1</voice><type>eighth</type><beam number="1">end</beam></note><note><pitch><step>E</step><alter>-1</alter><octave>5</octave></pitch><duration>192</duration><voice>1</voice><type>eighth</type><beam number="1">begin</beam></note><note><pitch><step>F</step><octave>5</octave></pitch><duration>192</duration><voice>1</voice><type>eighth</type><beam number="1">continue</beam></note><note><pitch><step>D</step><octave>5</octave></pitch><duration>192</duration><voice>1</voice><type>eighth</type><beam number="1">continue</beam></note><note><pitch><step>E</step><alter>-1</alter><octave>5</octave></pitch><duration>192</duration><voice>1</voice><type>eighth</type><beam number="1">end</beam></note></measure><measure number="17"><attributes/><note><pitch><step>F</step><alter>1</alter><octave>5</octave></pitch><duration>192</duration><voice>1</voice><type>eighth</type><accidental>sharp</accidental><beam number="1">begin</beam></note><note><pitch><step>G</step><octave>5</octave></pitch><duration>192</duration><voice>1</voice><type>eighth</type><beam number="1">continue</beam></note><note><pitch><step>D</step><octave>5</octave></pitch><duration>192</duration><voice>1</voice><type>eighth</type><beam number="1">continue</beam></note><note><pitch><step>E</step><alter>-1</alter><octave>5</octave></pitch><duration>192</duration><voice>1</voice><type>eighth</type><beam number="1">end</beam></note><note><pitch><step>E</step><alter>-1</alter><octave>4</octave></pitch><duration>192</duration><voice>1</voice><type>eighth</type><beam number="1">begin</beam></note><note><pitch><step>F</step><octave>4</octave></pitch><duration>192</duration><voice>1</voice><type>eighth</type><beam number="1">continue</beam></note><note><pitch><step>D</step><octave>4</octave></pitch><duration>192</duration><voice>1</voice><type>eighth</type><beam number="1">continue</beam></note><note><pitch><step>E</step><alter>-1</alter><octave>4</octave></pitch><duration>192</duration><voice>1</voice><type>eighth</type><beam number="1">end</beam></note></measure><measure number="18"><attributes/><note><rest/><duration>1536</duration><voice>1</voice><type>whole</type></note></measure><measure number="19"><attributes/><note><rest/><duration>1536</duration><voice>1</voice><type>whole</type></note></measure><measure number="20"><attributes/><note><pitch><step>E</step><alter>-1</alter><octave>4</octave></pitch><duration>768</duration><voice>1</voice><type>half</type></note><note><chord/><pitch><step>C</step><octave>5</octave></pitch><duration>768</duration><voice>1</voice><type>half</type></note><note><chord/><pitch><step>G</step><octave>5</octave></pitch><duration>768</duration><voice>1</voice><type>half</type></note><note><chord/><pitch><step>C</step><octave>6</octave></pitch><duration>768</duration><voice>1</voice><type>half</type></note><note><pitch><step>B</step><alter>-1</alter><octave>5</octave></pitch><duration>576</duration><voice>1</voice><type>quarter</type><dot/></note><note><pitch><step>A</step><alter>-1</alter><octave>5</octave></pitch><duration>192</duration><voice>1</voice><type>eighth</type></note></measure><measure number="21"><attributes/><note><pitch><step>G</step><octave>5</octave></pitch><duration>768</duration><voice>1</voice><type>half</type></note><note><grace/><pitch><step>A</step><alter>-1</alter><octave>5</octave></pitch><voice>1</voice><type>eighth</type><beam number="1">begin</beam></note><note><pitch><step>G</step><octave>5</octave></pitch><duration>192</duration><voice>1</voice><type>eighth</type><beam number="1">begin</beam></note><note><pitch><step>F</step><octave>5</octave></pitch><duration>192</duration><voice>1</voice><type>eighth</type><beam number="1">continue</beam></note><note><pitch><step>C</step><octave>5</octave></pitch><duration>192</duration><voice>1</voice><type>eighth</type><beam number="1">continue</beam></note><note><pitch><step>D</step><octave>5</octave></pitch><duration>192</duration><voice>1</voice><type>eighth</type><beam number="1">end</beam></note></measure><measure number="22"><attributes/><note><pitch><step>E</step><alter>-1</alter><octave>5</octave></pitch><duration>192</duration><voice>1</voice><type>eighth</type><beam number="1">begin</beam></note><note><pitch><step>F</step><alter>1</alter><octave>4</octave></pitch><duration>192</duration><voice>1</voice><type>eighth</type><accidental>sharp</accidental><beam number="1">continue</beam></note><note><pitch><step>G</step><octave>4</octave></pitch><duration>192</duration><voice>1</voice><type>eighth</type><beam number="1">continue</beam></note><note><pitch><step>E</step><alter>-1</alter><octave>5</octave></pitch><duration>192</duration><voice>1</voice><type>eighth</type><beam number="1">end</beam></note><note><grace/><pitch><step>D</step><octave>5</octave></pitch><voice>1</voice><type>eighth</type><beam number="1">begin</beam></note><note><pitch><step>E</step><alter>-1</alter><octave>5</octave></pitch><duration>192</duration><voice>1</voice><type>eighth</type><beam number="1">begin</beam></note><note><pitch><step>D</step><octave>5</octave></pitch><duration>192</duration><voice>1</voice><type>eighth</type><beam number="1">continue</beam></note><note><pitch><step>E</step><alter>-1</alter><octave>5</octave></pitch><duration>192</duration><voice>1</voice><type>eighth</type><beam number="1">continue</beam></note><note><pitch><step>F</step><octave>5</octave></pitch><duration>192</duration><voice>1</voice><type>eighth</type><beam number="1">end</beam></note></measure><measure number="23"><attributes/><note><pitch><step>F</step><alter>1</alter><octave>5</octave></pitch><duration>192</duration><voice>1</voice><type>eighth</type><accidental>sharp</accidental><beam number="1">begin</beam></note><note><pitch><step>G</step><octave>5</octave></pitch><duration>192</duration><voice>1</voice><type>eighth</type><beam number="1">continue</beam></note><note><pitch><step>E</step><alter>-1</alter><octave>5</octave></pitch><duration>192</duration><voice>1</voice><type>eighth</type><beam number="1">continue</beam></note><note><pitch><step>C</step><octave>5</octave></pitch><duration>192</duration><voice>1</voice><type>eighth</type><beam number="1">end</beam></note><note><pitch><step>E</step><alter>-1</alter><octave>5</octave></pitch><duration>384</duration><voice>1</voice><type>quarter</type></note><note><pitch><step>D</step><octave>5</octave></pitch><duration>96</duration><voice>1</voice><type>16th</type><beam number="1">begin</beam></note><note><pitch><step>G</step><octave>5</octave></pitch><duration>96</duration><voice>1</voice><type>16th</type><beam number="1">end</beam></note><note><pitch><step>B</step><octave>5</octave></pitch><voice>1</voice><type>16th</type><accidental>sharp</accidental><duration>64</duration><time-modification><actual-notes>3</actual-notes><normal-notes>2</normal-notes><normal-type>eighth</normal-type></time-modification><beam number="1">begin</beam><notations><tuplet type="start" number="1"><tuplet-actual><tuplet-number>3</tuplet-number><tuplet-type>16th</tuplet-type></tuplet-actual><tuplet-normal><tuplet-number>1</tuplet-number><tuplet-type>eighth</tuplet-type></tuplet-normal></tuplet></notations></note><note><pitch><step>C</step><octave>6</octave></pitch><voice>1</voice><type>16th</type><duration>64</duration><time-modification><actual-notes>3</actual-notes><normal-notes>2</normal-notes><normal-type>eighth</normal-type></time-modification><beam number="1">continue</beam></note><note><pitch><step>D</step><octave>6</octave></pitch><voice>1</voice><type>16th</type><duration>64</duration><time-modification><actual-notes>3</actual-notes><normal-notes>2</normal-notes><normal-type>eighth</normal-type></time-modification><beam number="1">end</beam><notations><tuplet type="stop" number="1"/></notations></note></measure><measure number="24"><attributes/><note><pitch><step>E</step><alter>-1</alter><octave>6</octave></pitch><voice>1</voice><type>16th</type><duration>64</duration><time-modification><actual-notes>6</actual-notes><normal-notes>4</normal-notes><normal-type>quarter</normal-type></time-modification><beam number="1">begin</beam><notations><tuplet type="start" number="1"><tuplet-actual><tuplet-number>6</tuplet-number><tuplet-type>16th</tuplet-type></tuplet-actual><tuplet-normal><tuplet-number>1</tuplet-number><tuplet-type>quarter</tuplet-type></tuplet-normal></tuplet></notations></note><note><pitch><step>F</step><octave>6</octave></pitch><voice>1</voice><type>16th</type><duration>64</duration><time-modification><actual-notes>6</actual-notes><normal-notes>4</normal-notes><normal-type>quarter</normal-type></time-modification><beam number="1">continue</beam></note><note><pitch><step>E</step><alter>-1</alter><octave>6</octave></pitch><voice>1</voice><type>16th</type><duration>64</duration><time-modification><actual-notes>6</actual-notes><normal-notes>4</normal-notes><normal-type>quarter</normal-type></time-modification><beam number="1">continue</beam></note><note><pitch><step>D</step><octave>6</octave></pitch><voice>1</voice><type>16th</type><duration>64</duration><time-modification><actual-notes>6</actual-notes><normal-notes>4</normal-notes><normal-type>quarter</normal-type></time-modification><beam number="1">continue</beam></note><note><pitch><step>E</step><alter>-1</alter><octave>6</octave></pitch><voice>1</voice><type>16th</type><duration>64</duration><time-modification><actual-notes>6</actual-notes><normal-notes>4</normal-notes><normal-type>quarter</normal-type></time-modification><beam number="1">continue</beam></note><note><pitch><step>D</step><octave>6</octave></pitch><voice>1</voice><type>16th</type><duration>64</duration><time-modification><actual-notes>6</actual-notes><normal-notes>4</normal-notes><normal-type>quarter</normal-type></time-modification><beam number="1">end</beam><notations><tuplet type="stop" number="1"/></notations></note><note><pitch><step>C</step><octave>6</octave></pitch><duration>384</duration><voice>1</voice><type>quarter</type></note><note><pitch><step>F</step><octave>5</octave></pitch><voice>1</voice><type>16th</type><duration>64</duration><time-modification><actual-notes>6</actual-notes><normal-notes>4</normal-notes><normal-type>quarter</normal-type></time-modification><beam number="1">begin</beam><notations><tuplet type="start" number="1"><tuplet-actual><tuplet-number>6</tuplet-number><tuplet-type>16th</tuplet-type></tuplet-actual><tuplet-normal><tuplet-number>1</tuplet-number><tuplet-type>quarter</tuplet-type></tuplet-normal></tuplet></notations></note><note><pitch><step>G</step><octave>5</octave></pitch><voice>1</voice><type>16th</type><duration>64</duration><time-modification><actual-notes>6</actual-notes><normal-notes>4</normal-notes><normal-type>quarter</normal-type></time-modification><beam number="1">continue</beam></note><note><pitch><step>F</step><octave>5</octave></pitch><voice>1</voice><type>16th</type><duration>64</duration><time-modification><actual-notes>6</actual-notes><normal-notes>4</normal-notes><normal-type>quarter</normal-type></time-modification><beam number="1">continue</beam></note><note><pitch><step>E</step><alter>-1</alter><octave>5</octave></pitch><voice>1</voice><type>16th</type><duration>64</duration><time-modification><actual-notes>6</actual-notes><normal-notes>4</normal-notes><normal-type>quarter</normal-type></time-modification><beam number="1">continue</beam></note><note><pitch><step>F</step><octave>5</octave></pitch><voice>1</voice><type>16th</type><duration>64</duration><time-modification><actual-notes>6</actual-notes><normal-notes>4</normal-notes><normal-type>quarter</normal-type></time-modification><beam number="1">continue</beam></note><note><pitch><step>E</step><alter>-1</alter><octave>5</octave></pitch><voice>1</voice><type>16th</type><duration>64</duration><time-modification><actual-notes>6</actual-notes><normal-notes>4</normal-notes><normal-type>quarter</normal-type></time-modification><beam number="1">end</beam><notations><tuplet type="stop" number="1"/></notations></note><note><pitch><step>D</step><octave>5</octave></pitch><duration>384</duration><voice>1</voice><type>quarter</type></note></measure><measure number="25"><attributes/><note><pitch><step>G</step><octave>5</octave></pitch><voice>1</voice><type>16th</type><duration>64</duration><time-modification><actual-notes>6</actual-notes><normal-notes>4</normal-notes><normal-type>quarter</normal-type></time-modification><beam number="1">begin</beam><notations><tuplet type="start" number="1"><tuplet-actual><tuplet-number>6</tuplet-number><tuplet-type>16th</tuplet-type></tuplet-actual><tuplet-normal><tuplet-number>1</tuplet-number><tuplet-type>quarter</tuplet-type></tuplet-normal></tuplet></notations></note><note><pitch><step>A</step><alter>-1</alter><octave>5</octave></pitch><voice>1</voice><type>16th</type><duration>64</duration><time-modification><actual-notes>6</actual-notes><normal-notes>4</normal-notes><normal-type>quarter</normal-type></time-modification><beam number="1">continue</beam></note><note><pitch><step>G</step><octave>5</octave></pitch><voice>1</voice><type>16th</type><duration>64</duration><time-modification><actual-notes>6</actual-notes><normal-notes>4</normal-notes><normal-type>quarter</normal-type></time-modification><beam number="1">continue</beam></note><note><pitch><step>F</step><octave>5</octave></pitch><voice>1</voice><type>16th</type><duration>64</duration><time-modification><actual-notes>6</actual-notes><normal-notes>4</normal-notes><normal-type>quarter</normal-type></time-modification><beam number="1">continue</beam></note><note><pitch><step>G</step><octave>5</octave></pitch><voice>1</voice><type>16th</type><duration>64</duration><time-modification><actual-notes>6</actual-notes><normal-notes>4</normal-notes><normal-type>quarter</normal-type></time-modification><beam number="1">continue</beam></note><note><pitch><step>F</step><octave>5</octave></pitch><voice>1</voice><type>16th</type><duration>64</duration><time-modification><actual-notes>6</actual-notes><normal-notes>4</normal-notes><normal-type>quarter</normal-type></time-modification><beam number="1">end</beam><notations><tuplet type="stop" number="1"/></notations></note><note><pitch><step>E</step><alter>-1</alter><octave>5</octave></pitch><duration>384</duration><voice>1</voice><type>quarter</type></note><note><pitch><step>A</step><alter>-1</alter><octave>5</octave></pitch><voice>1</voice><type>16th</type><duration>64</duration><time-modification><actual-notes>6</actual-notes><normal-notes>4</normal-notes><normal-type>quarter</normal-type></time-modification><beam number="1">begin</beam><notations><tuplet type="start" number="1"><tuplet-actual><tuplet-number>6</tuplet-number><tuplet-type>16th</tuplet-type></tuplet-actual><tuplet-normal><tuplet-number>1</tuplet-number><tuplet-type>quarter</tuplet-type></tuplet-normal></tuplet></notations></note><note><pitch><step>B</step><alter>-1</alter><octave>5</octave></pitch><voice>1</voice><type>16th</type><duration>64</duration><time-modification><actual-notes>6</actual-notes><normal-notes>4</normal-notes><normal-type>quarter</normal-type></time-modification><beam number="1">continue</beam></note><note><pitch><step>A</step><alter>-1</alter><octave>5</octave></pitch><voice>1</voice><type>16th</type><duration>64</duration><time-modification><actual-notes>6</actual-notes><normal-notes>4</normal-notes><normal-type>quarter</normal-type></time-modification><beam number="1">continue</beam></note><note><pitch><step>G</step><octave>5</octave></pitch><voice>1</voice><type>16th</type><duration>64</duration><time-modification><actual-notes>6</actual-notes><normal-notes>4</normal-notes><normal-type>quarter</normal-type></time-modification><beam number="1">continue</beam></note><note><pitch><step>A</step><alter>-1</alter><octave>5</octave></pitch><voice>1</voice><type>16th</type><duration>64</duration><time-modification><actual-notes>6</actual-notes><normal-notes>4</normal-notes><normal-type>quarter</normal-type></time-modification><beam number="1">continue</beam></note><note><pitch><step>G</step><octave>5</octave></pitch><voice>1</voice><type>16th</type><duration>64</duration><time-modification><actual-notes>6</actual-notes><normal-notes>4</normal-notes><normal-type>quarter</normal-type></time-modification><beam number="1">end</beam><notations><tuplet type="stop" number="1"/></notations></note><note><pitch><step>F</step><octave>5</octave></pitch><voice>1</voice><type>16th</type><duration>64</duration><time-modification><actual-notes>6</actual-notes><normal-notes>4</normal-notes><normal-type>quarter</normal-type></time-modification><beam number="1">begin</beam><notations><tuplet type="start" number="1"><tuplet-actual><tuplet-number>6</tuplet-number><tuplet-type>16th</tuplet-type></tuplet-actual><tuplet-normal><tuplet-number>1</tuplet-number><tuplet-type>quarter</tuplet-type></tuplet-normal></tuplet></notations></note><note><pitch><step>G</step><octave>5</octave></pitch><voice>1</voice><type>16th</type><duration>64</duration><time-modification><actual-notes>6</actual-notes><normal-notes>4</normal-notes><normal-type>quarter</normal-type></time-modification><beam number="1">continue</beam></note><note><pitch><step>A</step><alter>-1</alter><octave>5</octave></pitch><voice>1</voice><type>16th</type><duration>64</duration><time-modification><actual-notes>6</actual-notes><normal-notes>4</normal-notes><normal-type>quarter</normal-type></time-modification><beam number="1">continue</beam></note><note><pitch><step>B</step><alter>-1</alter><octave>5</octave></pitch><voice>1</voice><type>16th</type><duration>64</duration><time-modification><actual-notes>6</actual-notes><normal-notes>4</normal-notes><normal-type>quarter</normal-type></time-modification><beam number="1">continue</beam></note><note><pitch><step>C</step><octave>6</octave></pitch><voice>1</voice><type>16th</type><duration>64</duration><time-modification><actual-notes>6</actual-notes><normal-notes>4</normal-notes><normal-type>quarter</normal-type></time-modification><beam number="1">continue</beam></note><note><pitch><step>D</step><octave>6</octave></pitch><voice>1</voice><type>16th</type><duration>64</duration><time-modification><actual-notes>6</actual-notes><normal-notes>4</normal-notes><normal-type>quarter</normal-type></time-modification><beam number="1">end</beam><notations><tuplet type="stop" number="1"/></notations></note><barline location="right"><bar-style>light-light</bar-style></barline></measure><measure number="26"><attributes><key><fifths>-6</fifths><mode>minor</mode></key></attributes><note><pitch><step>E</step><alter>-1</alter><octave>6</octave></pitch><voice>1</voice><type>16th</type><duration>64</duration><time-modification><actual-notes>6</actual-notes><normal-notes>4</normal-notes><normal-type>quarter</normal-type></time-modification><beam number="1">begin</beam><notations><tuplet type="start" number="1"><tuplet-actual><tuplet-number>6</tuplet-number><tuplet-type>16th</tuplet-type></tuplet-actual><tuplet-normal><tuplet-number>1</tuplet-number><tuplet-type>quarter</tuplet-type></tuplet-normal></tuplet></notations></note><note><pitch><step>F</step><octave>6</octave></pitch><voice>1</voice><type>16th</type><duration>64</duration><time-modification><actual-notes>6</actual-notes><normal-notes>4</normal-notes><normal-type>quarter</normal-type></time-modification><beam number="1">continue</beam></note><note><pitch><step>E</step><alter>-1</alter><octave>6</octave></pitch><voice>1</voice><type>16th</type><duration>64</duration><time-modification><actual-notes>6</actual-notes><normal-notes>4</normal-notes><normal-type>quarter</normal-type></time-modification><beam number="1">continue</beam></note><note><pitch><step>D</step><octave>6</octave></pitch><voice>1</voice><type>16th</type><accidental>natural</accidental><duration>64</duration><time-modification><actual-notes>6</actual-notes><normal-notes>4</normal-notes><normal-type>quarter</normal-type></time-modification><beam number="1">continue</beam></note><note><pitch><step>E</step><alter>-1</alter><octave>6</octave></pitch><voice>1</voice><type>16th</type><duration>64</duration><time-modification><actual-notes>6</actual-notes><normal-notes>4</normal-notes><normal-type>quarter</normal-type></time-modification><beam number="1">continue</beam></note><note><pitch><step>D</step><octave>6</octave></pitch><voice>1</voice><type>16th</type><duration>64</duration><time-modification><actual-notes>6</actual-notes><normal-notes>4</normal-notes><normal-type>quarter</normal-type></time-modification><beam number="1">end</beam><notations><tuplet type="stop" number="1"/></notations></note><note><pitch><step>C</step><alter>-1</alter><octave>6</octave></pitch><voice>1</voice><type>16th</type><duration>64</duration><time-modification><actual-notes>6</actual-notes><normal-notes>4</normal-notes><normal-type>quarter</normal-type></time-modification><beam number="1">begin</beam><notations><tuplet type="start" number="1"><tuplet-actual><tuplet-number>6</tuplet-number><tuplet-type>16th</tuplet-type></tuplet-actual><tuplet-normal><tuplet-number>1</tuplet-number><tuplet-type>quarter</tuplet-type></tuplet-normal></tuplet></notations></note><note><pitch><step>B</step><alter>-1</alter><octave>5</octave></pitch><voice>1</voice><type>16th</type><duration>64</duration><time-modification><actual-notes>6</actual-notes><normal-notes>4</normal-notes><normal-type>quarter</normal-type></time-modification><beam number="1">continue</beam></note><note><pitch><step>A</step><alter>-1</alter><octave>5</octave></pitch><voice>1</voice><type>16th</type><duration>64</duration><time-modification><actual-notes>6</actual-notes><normal-notes>4</normal-notes><normal-type>quarter</normal-type></time-modification><beam number="1">continue</beam></note><note><pitch><step>G</step><alter>-1</alter><octave>5</octave></pitch><voice>1</voice><type>16th</type><duration>64</duration><time-modification><actual-notes>6</actual-notes><normal-notes>4</normal-notes><normal-type>quarter</normal-type></time-modification><beam number="1">continue</beam></note><note><pitch><step>F</step><octave>5</octave></pitch><voice>1</voice><type>16th</type><duration>64</duration><time-modification><actual-notes>6</actual-notes><normal-notes>4</normal-notes><normal-type>quarter</normal-type></time-modification><beam number="1">continue</beam></note><note><pitch><step>E</step><alter>-1</alter><octave>5</octave></pitch><voice>1</voice><type>16th</type><duration>64</duration><time-modification><actual-notes>6</actual-notes><normal-notes>4</normal-notes><normal-type>quarter</normal-type></time-modification><beam number="1">end</beam><notations><tuplet type="stop" number="1"/></notations></note><note><pitch><step>D</step><alter>-1</alter><octave>5</octave></pitch><voice>1</voice><type>16th</type><duration>64</duration><time-modification><actual-notes>6</actual-notes><normal-notes>4</normal-notes><normal-type>quarter</normal-type></time-modification><beam number="1">begin</beam><notations><tuplet type="start" number="1"><tuplet-actual><tuplet-number>6</tuplet-number><tuplet-type>16th</tuplet-type></tuplet-actual><tuplet-normal><tuplet-number>1</tuplet-number><tuplet-type>quarter</tuplet-type></tuplet-normal></tuplet></notations></note><note><pitch><step>E</step><alter>-1</alter><octave>5</octave></pitch><voice>1</voice><type>16th</type><duration>64</duration><time-modification><actual-notes>6</actual-notes><normal-notes>4</normal-notes><normal-type>quarter</normal-type></time-modification><beam number="1">continue</beam></note><note><pitch><step>F</step><octave>5</octave></pitch><voice>1</voice><type>16th</type><duration>64</duration><time-modification><actual-notes>6</actual-notes><normal-notes>4</normal-notes><normal-type>quarter</normal-type></time-modification><beam number="1">continue</beam></note><note><pitch><step>G</step><alter>-1</alter><octave>5</octave></pitch><voice>1</voice><type>16th</type><duration>64</duration><time-modification><actual-notes>6</actual-notes><normal-notes>4</normal-notes><normal-type>quarter</normal-type></time-modification><beam number="1">continue</beam></note><note><pitch><step>G</step><alter>-1</alter><octave>5</octave></pitch><voice>1</voice><type>16th</type><duration>64</duration><time-modification><actual-notes>6</actual-notes><normal-notes>4</normal-notes><normal-type>quarter</normal-type></time-modification><beam number="1">continue</beam></note><note><pitch><step>A</step><alter>-1</alter><octave>5</octave></pitch><voice>1</voice><type>16th</type><duration>64</duration><time-modification><actual-notes>6</actual-notes><normal-notes>4</normal-notes><normal-type>quarter</normal-type></time-modification><beam number="1">end</beam><notations><tuplet type="stop" number="1"/></notations></note><note><pitch><step>B</step><alter>-1</alter><octave>5</octave></pitch><voice>1</voice><type>16th</type><duration>64</duration><time-modification><actual-notes>6</actual-notes><normal-notes>4</normal-notes><normal-type>quarter</normal-type></time-modification><beam number="1">begin</beam><notations><tuplet type="start" number="1"><tuplet-actual><tuplet-number>6</tuplet-number><tuplet-type>16th</tuplet-type></tuplet-actual><tuplet-normal><tuplet-number>1</tuplet-number><tuplet-type>quarter</tuplet-type></tuplet-normal></tuplet></notations></note><note><pitch><step>C</step><alter>-1</alter><octave>6</octave></pitch><voice>1</voice><type>16th</type><duration>64</duration><time-modification><actual-notes>6</actual-notes><normal-notes>4</normal-notes><normal-type>quarter</normal-type></time-modification><beam number="1">continue</beam></note><note><pitch><step>D</step><octave>6</octave></pitch><voice>1</voice><type>16th</type><duration>64</duration><time-modification><actual-notes>6</actual-notes><normal-notes>4</normal-notes><normal-type>quarter</normal-type></time-modification><beam number="1">continue</beam></note><note><pitch><step>E</step><alter>-1</alter><octave>6</octave></pitch><voice>1</voice><type>16th</type><duration>64</duration><time-modification><actual-notes>6</actual-notes><normal-notes>4</normal-notes><normal-type>quarter</normal-type></time-modification><beam number="1">continue</beam></note><note><pitch><step>F</step><octave>6</octave></pitch><voice>1</voice><type>16th</type><duration>64</duration><time-modification><actual-notes>6</actual-notes><normal-notes>4</normal-notes><normal-type>quarter</normal-type></time-modification><beam number="1">continue</beam></note><note><pitch><step>G</step><alter>-1</alter><octave>6</octave></pitch><voice>1</voice><type>16th</type><duration>64</duration><time-modification><actual-notes>6</actual-notes><normal-notes>4</normal-notes><normal-type>quarter</normal-type></time-modification><beam number="1">end</beam><notations><tuplet type="stop" number="1"/></notations></note></measure><measure number="27"><attributes/><note><pitch><step>G</step><alter>-1</alter><octave>6</octave></pitch><duration>48</duration><voice>1</voice><type>32nd</type><beam number="1">begin</beam></note><note><pitch><step>B</step><alter>-1</alter><octave>5</octave></pitch><duration>48</duration><voice>1</voice><type>32nd</type><beam number="1">continue</beam></note><note><chord/><pitch><step>B</step><alter>-1</alter><octave>6</octave></pitch><duration>48</duration><voice>1</voice><type>32nd</type><beam number="1">continue</beam></note><note><pitch><step>B</step><alter>-1</alter><octave>5</octave></pitch><duration>48</duration><voice>1</voice><type>32nd</type><beam number="1">continue</beam></note><note><chord/><pitch><step>B</step><alter>-1</alter><octave>6</octave></pitch><duration>48</duration><voice>1</voice><type>32nd</type><beam number="1">continue</beam></note><note><pitch><step>B</step><alter>-1</alter><octave>5</octave></pitch><duration>48</duration><voice>1</voice><type>32nd</type><beam number="1">continue</beam></note><note><chord/><pitch><step>B</step><alter>-1</alter><octave>6</octave></pitch><duration>48</duration><voice>1</voice><type>32nd</type><beam number="1">continue</beam></note><note><pitch><step>B</step><alter>-1</alter><octave>5</octave></pitch><duration>48</duration><voice>1</voice><type>32nd</type><beam number="1">continue</beam></note><note><chord/><pitch><step>B</step><alter>-1</alter><octave>6</octave></pitch><duration>48</duration><voice>1</voice><type>32nd</type><beam number="1">continue</beam></note><note><pitch><step>B</step><alter>-1</alter><octave>5</octave></pitch><duration>48</duration><voice>1</voice><type>32nd</type><beam number="1">continue</beam></note><note><chord/><pitch><step>B</step><alter>-1</alter><octave>6</octave></pitch><duration>48</duration><voice>1</voice><type>32nd</type><beam number="1">continue</beam></note><note><pitch><step>B</step><alter>-1</alter><octave>5</octave></pitch><duration>48</duration><voice>1</voice><type>32nd</type><beam number="1">continue</beam></note><note><chord/><pitch><step>B</step><alter>-1</alter><octave>6</octave></pitch><duration>48</duration><voice>1</voice><type>32nd</type><beam number="1">continue</beam></note><note><pitch><step>B</step><alter>-1</alter><octave>5</octave></pitch><duration>48</duration><voice>1</voice><type>32nd</type><beam number="1">end</beam></note><note><chord/><pitch><step>B</step><alter>-1</alter><octave>6</octave></pitch><duration>48</duration><voice>1</voice><type>32nd</type><beam number="1">end</beam></note><note><rest/><duration>192</duration><voice>1</voice><type>eighth</type></note><note><pitch><step>B</step><alter>-1</alter><octave>5</octave></pitch><duration>192</duration><voice>1</voice><type>eighth</type></note><note><pitch><step>C</step><alter>2</alter><octave>5</octave></pitch><duration>384</duration><voice>1</voice><type>quarter</type></note><note><chord/><pitch><step>D</step><alter>-1</alter><octave>5</octave></pitch><duration>384</duration><voice>1</voice><type>quarter</type></note><note><pitch><step>C</step><octave>6</octave></pitch><voice>1</voice><type>16th</type><accidental>natural</accidental><duration>64</duration><time-modification><actual-notes>6</actual-notes><normal-notes>4</normal-notes><normal-type>quarter</normal-type></time-modification><beam number="1">begin</beam><notations><tuplet type="start" number="1"><tuplet-actual><tuplet-number>6</tuplet-number><tuplet-type>16th</tuplet-type></tuplet-actual><tuplet-normal><tuplet-number>1</tuplet-number><tuplet-type>quarter</tuplet-type></tuplet-normal></tuplet></notations></note><note><pitch><step>D</step><octave>6</octave></pitch><voice>1</voice><type>16th</type><accidental>natural</accidental><duration>64</duration><time-modification><actual-notes>6</actual-notes><normal-notes>4</normal-notes><normal-type>quarter</normal-type></time-modification><beam number="1">continue</beam></note><note><pitch><step>E</step><alter>-1</alter><octave>6</octave></pitch><voice>1</voice><type>16th</type><duration>64</duration><time-modification><actual-notes>6</actual-notes><normal-notes>4</normal-notes><normal-type>quarter</normal-type></time-modification><beam number="1">continue</beam></note><note><pitch><step>F</step><octave>6</octave></pitch><voice>1</voice><type>16th</type><duration>64</duration><time-modification><actual-notes>6</actual-notes><normal-notes>4</normal-notes><normal-type>quarter</normal-type></time-modification><beam number="1">continue</beam></note><note><pitch><step>G</step><alter>-1</alter><octave>6</octave></pitch><voice>1</voice><type>16th</type><duration>64</duration><time-modification><actual-notes>6</actual-notes><normal-notes>4</normal-notes><normal-type>quarter</normal-type></time-modification><beam number="1">continue</beam></note><note><pitch><step>A</step><alter>-1</alter><octave>6</octave></pitch><voice>1</voice><type>16th</type><duration>64</duration><time-modification><actual-notes>6</actual-notes><normal-notes>4</normal-notes><normal-type>quarter</normal-type></time-modification><beam number="1">end</beam><notations><tuplet type="stop" number="1"/></notations></note></measure><measure number="28"><attributes/><note><pitch><step>B</step><alter>-1</alter><octave>5</octave></pitch><voice>1</voice><type>16th</type><duration>64</duration><time-modification><actual-notes>3</actual-notes><normal-notes>2</normal-notes><normal-type>eighth</normal-type></time-modification><beam number="1">begin</beam><notations><tuplet type="start" number="1"><tuplet-actual><tuplet-number>3</tuplet-number><tuplet-type>16th</tuplet-type></tuplet-actual><tuplet-normal><tuplet-number>1</tuplet-number><tuplet-type>eighth</tuplet-type></tuplet-normal></tuplet></notations></note><note><chord/><pitch><step>B</step><alter>-1</alter><octave>6</octave></pitch><voice>1</voice><type>16th</type><duration>64</duration><time-modification><actual-notes>3</actual-notes><normal-notes>2</normal-notes><normal-type>eighth</normal-type></time-modification><beam number="1">begin</beam></note><note><pitch><step>B</step><alter>-1</alter><octave>5</octave></pitch><voice>1</voice><type>16th</type><duration>64</duration><time-modification><actual-notes>3</actual-notes><normal-notes>2</normal-notes><normal-type>eighth</normal-type></time-modification><beam number="1">continue</beam></note><note><chord/><pitch><step>B</step><alter>-1</alter><octave>6</octave></pitch><voice>1</voice><type>16th</type><duration>64</duration><time-modification><actual-notes>3</actual-notes><normal-notes>2</normal-notes><normal-type>eighth</normal-type></time-modification><beam number="1">continue</beam></note><note><pitch><step>B</step><alter>-1</alter><octave>5</octave></pitch><voice>1</voice><type>16th</type><duration>64</duration><time-modification><actual-notes>3</actual-notes><normal-notes>2</normal-notes><normal-type>eighth</normal-type></time-modification><beam number="1">end</beam><notations><tuplet type="stop" number="1"/></notations></note><note><chord/><pitch><step>B</step><alter>-1</alter><octave>6</octave></pitch><voice>1</voice><type>16th</type><duration>64</duration><time-modification><actual-notes>3</actual-notes><normal-notes>2</normal-notes><normal-type>eighth</normal-type></time-modification><beam number="1">end</beam></note><note><rest/><duration>192</duration><voice>1</voice><type>eighth</type></note><note><rest/><duration>384</duration><voice>1</voice><type>quarter</type></note><note><rest/><duration>768</duration><voice>1</voice><type>half</type></note></measure><measure number="29"><attributes/><note><rest/><duration>768</duration><voice>1</voice><type>half</type></note><note><rest/><duration>192</duration><voice>1</voice><type>eighth</type></note><note><pitch><step>G</step><octave>4</octave></pitch><duration>192</duration><voice>1</voice><type>eighth</type><accidental>natural</accidental><beam number="1">begin</beam></note><note><pitch><step>F</step><octave>5</octave></pitch><duration>192</duration><voice>1</voice><type>eighth</type><beam number="1">continue</beam></note><note><pitch><step>E</step><alter>-1</alter><octave>5</octave></pitch><duration>192</duration><voice>1</voice><type>eighth</type><beam number="1">continue</beam></note><barline location="right"><bar-style>light-light</bar-style></barline></measure><measure number="30"><attributes><key><fifths>-3</fifths><mode>minor</mode></key></attributes><note><pitch><step>D</step><octave>5</octave></pitch><duration>192</duration><voice>1</voice><type>eighth</type><beam number="1">begin</beam></note><note><pitch><step>E</step><alter>-1</alter><octave>5</octave></pitch><duration>192</duration><voice>1</voice><type>eighth</type><beam number="1">end</beam></note><note><pitch><step>G</step><octave>4</octave></pitch><duration>576</duration><voice>1</voice><type>quarter</type><dot/></note><note><pitch><step>G</step><octave>4</octave></pitch><duration>192</duration><voice>1</voice><type>eighth</type><beam number="1">begin</beam></note><note><pitch><step>F</step><octave>5</octave></pitch><duration>192</duration><voice>1</voice><type>eighth</type><beam number="1">continue</beam></note><note><pitch><step>E</step><alter>-1</alter><octave>5</octave></pitch><duration>192</duration><voice>1</voice><type>eighth</type><beam number="1">end</beam></note></measure><measure number="31"><attributes/><note><pitch><step>D</step><octave>5</octave></pitch><duration>192</duration><voice>1</voice><type>eighth</type><beam number="1">begin</beam></note><note><pitch><step>E</step><alter>-1</alter><octave>5</octave></pitch><duration>192</duration><voice>1</voice><type>eighth</type><beam number="1">end</beam></note><note><pitch><step>G</step><octave>4</octave></pitch><duration>576</duration><voice>1</voice><type>quarter</type><dot/></note><note><pitch><step>G</step><octave>4</octave></pitch><duration>192</duration><voice>1</voice><type>eighth</type><beam number="1">begin</beam></note><note><pitch><step>B</step><alter>-1</alter><octave>4</octave></pitch><duration>192</duration><voice>1</voice><type>eighth</type><beam number="1">continue</beam></note><note><pitch><step>A</step><alter>-1</alter><octave>4</octave></pitch><duration>192</duration><voice>1</voice><type>eighth</type><beam number="1">continue</beam></note></measure><measure number="32"><attributes/><note><pitch><step>G</step><octave>4</octave></pitch><duration>192</duration><voice>1</voice><type>eighth</type><beam number="1">begin</beam></note><note><pitch><step>E</step><alter>-1</alter><octave>4</octave></pitch><duration>192</duration><voice>1</voice><type>eighth</type><beam number="1">end</beam></note><note><pitch><step>E</step><alter>-1</alter><octave>4</octave></pitch><duration>192</duration><voice>1</voice><type>eighth</type><beam number="1">begin</beam></note><note><pitch><step>C</step><octave>4</octave></pitch><duration>96</duration><voice>1</voice><type>16th</type><beam number="1">continue</beam></note><note><pitch><step>D</step><octave>4</octave></pitch><duration>96</duration><voice>1</voice><type>16th</type><beam number="1">end</beam></note><note><pitch><step>E</step><alter>-1</alter><octave>4</octave></pitch><duration>576</duration><voice>1</voice><type>quarter</type><dot/></note><note><pitch><step>G</step><octave>3</octave></pitch><duration>192</duration><voice>1</voice><type>eighth</type></note></measure><measure number="33"><attributes/><note><pitch><step>A</step><alter>-1</alter><octave>3</octave></pitch><duration>192</duration><voice>1</voice><type>eighth</type><beam number="1">begin</beam></note><note><pitch><step>E</step><alter>-1</alter><octave>4</octave></pitch><duration>192</duration><voice>1</voice><type>eighth</type><beam number="1">continue</beam></note><note><pitch><step>D</step><octave>4</octave></pitch><duration>192</duration><voice>1</voice><type>eighth</type><beam number="1">continue</beam></note><note><pitch><step>C</step><octave>4</octave></pitch><duration>192</duration><voice>1</voice><type>eighth</type><beam number="1">end</beam></note><note><pitch><step>D</step><octave>4</octave></pitch><duration>192</duration><voice>1</voice><type>eighth</type><beam number="1">begin</beam></note><note><pitch><step>G</step><octave>4</octave></pitch><duration>192</duration><voice>1</voice><type>eighth</type><beam number="1">continue</beam></note><note><pitch><step>F</step><octave>5</octave></pitch><duration>192</duration><voice>1</voice><type>eighth</type><beam number="1">continue</beam></note><note><pitch><step>E</step><alter>-1</alter><octave>5</octave></pitch><duration>192</duration><voice>1</voice><type>eighth</type><beam number="1">continue</beam></note></measure><measure number="34"><attributes/><note><pitch><step>D</step><octave>5</octave></pitch><duration>192</duration><voice>1</voice><type>eighth</type><beam number="1">begin</beam></note><note><pitch><step>E</step><alter>-1</alter><octave>5</octave></pitch><duration>192</duration><voice>1</voice><type>eighth</type><beam number="1">end</beam></note><note><pitch><step>G</step><octave>4</octave></pitch><duration>576</duration><voice>1</voice><type>quarter</type><dot/></note><note><pitch><step>G</step><octave>4</octave></pitch><duration>192</duration><voice>1</voice><type>eighth</type><beam number="1">begin</beam></note><note><pitch><step>F</step><octave>5</octave></pitch><duration>192</duration><voice>1</voice><type>eighth</type><beam number="1">continue</beam></note><note><pitch><step>E</step><alter>-1</alter><octave>5</octave></pitch><duration>192</duration><voice>1</voice><type>eighth</type><beam number="1">continue</beam></note></measure><measure number="35"><attributes/><note><pitch><step>D</step><octave>5</octave></pitch><duration>192</duration><voice>1</voice><type>eighth</type><beam number="1">begin</beam></note><note><pitch><step>E</step><alter>-1</alter><octave>5</octave></pitch><duration>192</duration><voice>1</voice><type>eighth</type><beam number="1">end</beam></note><note><pitch><step>B</step><alter>-1</alter><octave>5</octave></pitch><duration>768</duration><voice>1</voice><type>half</type></note><note><pitch><step>A</step><alter>-1</alter><octave>5</octave></pitch><duration>192</duration><voice>1</voice><type>eighth</type><beam number="1">begin</beam></note><note><pitch><step>G</step><octave>5</octave></pitch><duration>192</duration><voice>1</voice><type>eighth</type><beam number="1">end</beam></note></measure><measure number="36"><attributes/><note><pitch><step>G</step><octave>5</octave></pitch><duration>192</duration><voice>1</voice><type>eighth</type><beam number="1">begin</beam></note><note><pitch><step>A</step><alter>-1</alter><octave>5</octave></pitch><duration>192</duration><voice>1</voice><type>eighth</type><beam number="1">continue</beam></note><note><pitch><step>C</step><octave>5</octave></pitch><duration>192</duration><voice>1</voice><type>eighth</type><beam number="1">continue</beam></note><note><pitch><step>D</step><octave>5</octave></pitch><duration>192</duration><voice>1</voice><type>eighth</type><beam number="1">end</beam></note><note><pitch><step>E</step><alter>-1</alter><octave>5</octave></pitch><duration>192</duration><voice>1</voice><type>eighth</type><beam number="1">begin</beam></note><note><pitch><step>G</step><octave>4</octave></pitch><duration>192</duration><voice>1</voice><type>eighth</type><beam number="1">continue</beam></note><note><pitch><step>A</step><alter>-1</alter><octave>4</octave></pitch><duration>192</duration><voice>1</voice><type>eighth</type><beam number="1">continue</beam></note><note><pitch><step>E</step><alter>-1</alter><octave>5</octave></pitch><duration>192</duration><voice>1</voice><type>eighth</type><beam number="1">end</beam></note></measure><measure number="37"><attributes/><note><pitch><step>E</step><alter>-1</alter><octave>5</octave></pitch><duration>192</duration><voice>1</voice><type>eighth</type><beam number="1">begin</beam></note><note><pitch><step>G</step><octave>4</octave></pitch><duration>96</duration><voice>1</voice><type>16th</type><beam number="1">continue</beam></note><note><pitch><step>A</step><alter>-1</alter><octave>4</octave></pitch><duration>96</duration><voice>1</voice><type>16th</type><beam number="1">end</beam></note><note><pitch><step>B</step><alter>-1</alter><octave>4</octave></pitch><voice>1</voice><type>16th</type><duration>64</duration><time-modification><actual-notes>3</actual-notes><normal-notes>2</normal-notes><normal-type>eighth</normal-type></time-modification><beam number="1">begin</beam><notations><tuplet type="start" number="1"><tuplet-actual><tuplet-number>3</tuplet-number><tuplet-type>16th</tuplet-type></tuplet-actual><tuplet-normal><tuplet-number>1</tuplet-number><tuplet-type>eighth</tuplet-type></tuplet-normal></tuplet></notations></note><note><pitch><step>C</step><octave>5</octave></pitch><voice>1</voice><type>16th</type><duration>64</duration><time-modification><actual-notes>3</actual-notes><normal-notes>2</normal-notes><normal-type>eighth</normal-type></time-modification><beam number="1">continue</beam></note><note><pitch><step>D</step><octave>5</octave></pitch><voice>1</voice><type>16th</type><duration>64</duration><time-modification><actual-notes>3</actual-notes><normal-notes>2</normal-notes><normal-type>eighth</normal-type></time-modification><beam number="1">end</beam><notations><tuplet type="stop" number="1"/></notations></note><note><pitch><step>C</step><octave>5</octave></pitch><duration>48</duration><voice>1</voice><type>32nd</type><beam number="1">begin</beam></note><note><pitch><step>B</step><alter>-1</alter><octave>4</octave></pitch><duration>48</duration><voice>1</voice><type>32nd</type><beam number="1">continue</beam></note><note><pitch><step>C</step><octave>5</octave></pitch><duration>48</duration><voice>1</voice><type>32nd</type><beam number="1">continue</beam></note><note><pitch><step>D</step><octave>5</octave></pitch><duration>48</duration><voice>1</voice><type>32nd</type><beam number="1">end</beam></note><note><pitch><step>E</step><alter>-1</alter><octave>5</octave></pitch><duration>192</duration><voice>1</voice><type>eighth</type><beam number="1">begin</beam></note><note><pitch><step>G</step><octave>5</octave></pitch><duration>192</duration><voice>1</voice><type>eighth</type><beam number="1">continue</beam></note><note><pitch><step>F</step><octave>6</octave></pitch><duration>192</duration><voice>1</voice><type>eighth</type><beam number="1">continue</beam></note><note><pitch><step>E</step><alter>-1</alter><octave>6</octave></pitch><duration>192</duration><voice>1</voice><type>eighth</type><beam number="1">continue</beam></note></measure><measure number="38"><attributes/><note><pitch><step>D</step><octave>6</octave></pitch><duration>192</duration><voice>1</voice><type>eighth</type><beam number="1">begin</beam></note><note><pitch><step>E</step><alter>-1</alter><octave>6</octave></pitch><duration>192</duration><voice>1</voice><type>eighth</type><beam number="1">end</beam></note><note><pitch><step>G</step><octave>5</octave></pitch><duration>576</duration><voice>1</voice><type>quarter</type><dot/></note><note><pitch><step>G</step><octave>5</octave></pitch><duration>192</duration><voice>1</voice><type>eighth</type><beam number="1">begin</beam></note><note><pitch><step>F</step><octave>6</octave></pitch><duration>192</duration><voice>1</voice><type>eighth</type><beam number="1">continue</beam></note><note><pitch><step>E</step><alter>-1</alter><octave>6</octave></pitch><duration>192</duration><voice>1</voice><type>eighth</type><beam number="1">end</beam></note></measure><measure number="39"><attributes/><note><pitch><step>D</step><octave>6</octave></pitch><duration>192</duration><voice>1</voice><type>eighth</type><beam number="1">begin</beam></note><note><pitch><step>E</step><alter>-1</alter><octave>6</octave></pitch><duration>192</duration><voice>1</voice><type>eighth</type><beam number="1">end</beam></note><note><pitch><step>G</step><octave>5</octave></pitch><duration>576</duration><voice>1</voice><type>quarter</type><dot/></note><note><pitch><step>G</step><octave>5</octave></pitch><duration>192</duration><voice>1</voice><type>eighth</type><beam number="1">begin</beam></note><note><pitch><step>B</step><alter>-1</alter><octave>5</octave></pitch><duration>192</duration><voice>1</voice><type>eighth</type><beam number="1">continue</beam></note><note><pitch><step>A</step><alter>-1</alter><octave>5</octave></pitch><duration>192</duration><voice>1</voice><type>eighth</type><beam number="1">end</beam></note></measure><measure number="40"><attributes/><note><pitch><step>G</step><octave>5</octave></pitch><duration>192</duration><voice>1</voice><type>eighth</type><beam number="1">begin</beam></note><note><pitch><step>E</step><alter>-1</alter><octave>5</octave></pitch><duration>192</duration><voice>1</voice><type>eighth</type><beam number="1">end</beam></note><note><pitch><step>E</step><alter>-1</alter><octave>5</octave></pitch><duration>192</duration><voice>1</voice><type>eighth</type><beam number="1">begin</beam></note><note><pitch><step>C</step><octave>5</octave></pitch><duration>96</duration><voice>1</voice><type>16th</type><beam number="1">continue</beam></note><note><pitch><step>D</step><octave>5</octave></pitch><duration>96</duration><voice>1</voice><type>16th</type><beam number="1">end</beam></note><note><pitch><step>E</step><alter>-1</alter><octave>5</octave></pitch><duration>576</duration><voice>1</voice><type>quarter</type><dot/></note><note><pitch><step>G</step><octave>4</octave></pitch><duration>192</duration><voice>1</voice><type>eighth</type></note></measure><measure number="41"><attributes/><note><pitch><step>A</step><alter>-1</alter><octave>4</octave></pitch><duration>192</duration><voice>1</voice><type>eighth</type><beam number="1">begin</beam></note><note><pitch><step>E</step><alter>-1</alter><octave>5</octave></pitch><duration>192</duration><voice>1</voice><type>eighth</type><beam number="1">continue</beam></note><note><pitch><step>D</step><octave>5</octave></pitch><duration>192</duration><voice>1</voice><type>eighth</type><beam number="1">continue</beam></note><note><pitch><step>C</step><octave>5</octave></pitch><duration>192</duration><voice>1</voice><type>eighth</type><beam number="1">end</beam></note><note><pitch><step>G</step><octave>5</octave></pitch><duration>192</duration><voice>1</voice><type>eighth</type><beam number="1">begin</beam></note><note><pitch><step>G</step><octave>5</octave></pitch><duration>192</duration><voice>1</voice><type>eighth</type><beam number="1">continue</beam></note><note><pitch><step>F</step><octave>6</octave></pitch><duration>192</duration><voice>1</voice><type>eighth</type><beam number="1">continue</beam></note><note><pitch><step>E</step><alter>-1</alter><octave>6</octave></pitch><duration>192</duration><voice>1</voice><type>eighth</type><beam number="1">continue</beam></note></measure><measure number="42"><attributes/><note><pitch><step>D</step><octave>6</octave></pitch><duration>192</duration><voice>1</voice><type>eighth</type><beam number="1">begin</beam></note><note><pitch><step>E</step><alter>-1</alter><octave>6</octave></pitch><duration>192</duration><voice>1</voice><type>eighth</type><beam number="1">end</beam></note><note><pitch><step>G</step><octave>5</octave></pitch><duration>576</duration><voice>1</voice><type>quarter</type><dot/></note><note><pitch><step>G</step><octave>5</octave></pitch><duration>192</duration><voice>1</voice><type>eighth</type><beam number="1">begin</beam></note><note><pitch><step>F</step><octave>6</octave></pitch><duration>192</duration><voice>1</voice><type>eighth</type><beam number="1">continue</beam></note><note><pitch><step>E</step><alter>-1</alter><octave>6</octave></pitch><duration>192</duration><voice>1</voice><type>eighth</type><beam number="1">end</beam></note></measure><measure number="43"><attributes/><note><pitch><step>D</step><octave>6</octave></pitch><duration>192</duration><voice>1</voice><type>eighth</type><beam number="1">begin</beam></note><note><pitch><step>E</step><alter>-1</alter><octave>6</octave></pitch><duration>192</duration><voice>1</voice><type>eighth</type><beam number="1">end</beam></note><note><pitch><step>B</step><alter>-1</alter><octave>6</octave></pitch><duration>768</duration><voice>1</voice><type>half</type></note><note><pitch><step>A</step><alter>-1</alter><octave>6</octave></pitch><duration>192</duration><voice>1</voice><type>eighth</type><beam number="1">begin</beam></note><note><pitch><step>F</step><alter>1</alter><octave>6</octave></pitch><duration>192</duration><voice>1</voice><type>eighth</type><accidental>sharp</accidental><beam number="1">end</beam></note></measure><measure number="44"><attributes/><note><rest/><duration>192</duration><voice>1</voice><type>eighth</type></note><note><pitch><step>G</step><octave>4</octave></pitch><duration>192</duration><voice>1</voice><type>eighth</type><beam number="1">begin</beam></note><note><pitch><step>F</step><octave>5</octave></pitch><duration>192</duration><voice>1</voice><type>eighth</type><beam number="1">continue</beam></note><note><pitch><step>E</step><alter>-1</alter><octave>5</octave></pitch><duration>192</duration><voice>1</voice><type>eighth</type><beam number="1">end</beam></note><note><pitch><step>D</step><octave>5</octave></pitch><duration>192</duration><voice>1</voice><type>eighth</type><beam number="1">begin</beam></note><note><pitch><step>E</step><alter>-1</alter><octave>5</octave></pitch><duration>192</duration><voice>1</voice><type>eighth</type><beam number="1">end</beam></note><note><pitch><step>G</step><octave>4</octave></pitch><duration>384</duration><voice>1</voice><type>quarter</type></note></measure><measure number="45"><attributes/><note><pitch><step>G</step><octave>4</octave></pitch><duration>384</duration><voice>1</voice><type>quarter</type></note><note><pitch><step>D</step><octave>5</octave></pitch><duration>192</duration><voice>1</voice><type>eighth</type><beam number="1">begin</beam></note><note><pitch><step>C</step><octave>5</octave></pitch><duration>192</duration><voice>1</voice><type>eighth</type><beam number="1">end</beam></note><note><pitch><step>B</step><octave>4</octave></pitch><duration>384</duration><voice>1</voice><type>quarter</type><accidental>sharp</accidental></note><note><pitch><step>A</step><octave>4</octave></pitch><duration>192</duration><voice>1</voice><type>eighth</type><accidental>natural</accidental><beam number="1">begin</beam></note><note><chord/><pitch><step>D</step><octave>5</octave></pitch><duration>192</duration><voice>1</voice><type>eighth</type><beam number="1">begin</beam></note><note><pitch><step>B</step><octave>4</octave></pitch><duration>192</duration><voice>1</voice><type>eighth</type><beam number="1">end</beam></note><note><chord/><pitch><step>D</step><octave>5</octave></pitch><duration>192</duration><voice>1</voice><type>eighth</type><beam number="1">end</beam></note></measure><measure number="46"><attributes/><note><pitch><step>C</step><octave>5</octave></pitch><duration>768</duration><voice>1</voice><type>half</type></note><note><pitch><step>G</step><octave>5</octave></pitch><duration>384</duration><voice>1</voice><type>quarter</type></note><note><pitch><step>E</step><alter>-1</alter><octave>5</octave></pitch><duration>384</duration><voice>1</voice><type>quarter</type></note><note><chord/><pitch><step>A</step><octave>5</octave></pitch><duration>384</duration><voice>1</voice><type>quarter</type><accidental>natural</accidental></note></measure><measure number="47"><attributes/><note><pitch><step>B</step><octave>5</octave></pitch><duration>768</duration><voice>1</voice><type>half</type><accidental>sharp</accidental></note><note><chord/><pitch><step>D</step><octave>6</octave></pitch><duration>768</duration><voice>1</voice><type>half</type></note><note><pitch><step>F</step><octave>5</octave></pitch><duration>768</duration><voice>1</voice><type>half</type></note></measure><measure number="48"><attributes/><note><pitch><step>C</step><octave>5</octave></pitch><duration>1536</duration><voice>1</voice><type>whole</type></note><note><chord/><pitch><step>E</step><alter>-1</alter><octave>5</octave></pitch><duration>1536</duration><voice>1</voice><type>whole</type></note><note><chord/><pitch><step>C</step><octave>6</octave></pitch><duration>1536</duration><voice>1</voice><type>whole</type></note><barline location="right"><bar-style>light-heavy</bar-style></barline></measure></part></score-partwise>